<?xml version="1.0" encoding="UTF-8"?>
<svg width="16px" height="16px" viewBox="0 0 16 16" version="1.1" xmlns="http://www.w3.org/2000/svg" xmlns:xlink="http://www.w3.org/1999/xlink">
    <title>icon/添加/线圈-蓝色</title>
    <g id="icon/添加/线圈-蓝色" stroke="none" stroke-width="1" fill="none" fill-rule="evenodd">
        <path d="M8,0.666666667 C12.0500882,0.666666667 15.3333333,3.94991183 15.3333333,8 C15.3333333,12.0500882 12.0500882,15.3333333 8,15.3333333 C3.94991183,15.3333333 0.666666667,12.0500882 0.666666667,8 C0.666666667,3.94991183 3.94991183,0.666666667 8,0.666666667 Z M8,1.66666667 C4.50219658,1.66666667 1.66666667,4.50219658 1.66666667,8 C1.66666667,11.4978034 4.50219658,14.3333333 8,14.3333333 C11.4978034,14.3333333 14.3333333,11.4978034 14.3333333,8 C14.3333333,4.50219658 11.4978034,1.66666667 8,1.66666667 Z M8,4.5 C8.24545989,4.5 8.44960837,4.67687516 8.49194433,4.91012437 L8.5,5 L8.49966667,7.49966667 L11,7.5 C11.2761424,7.5 11.5,7.72385763 11.5,8 C11.5,8.24545989 11.3231248,8.44960837 11.0898756,8.49194433 L11,8.5 L8.49966667,8.49966667 L8.5,11 C8.5,11.2761424 8.27614237,11.5 8,11.5 C7.75454011,11.5 7.55039163,11.3231248 7.50805567,11.0898756 L7.5,11 L7.49966667,8.49966667 L5,8.5 C4.72385763,8.5 4.5,8.27614237 4.5,8 C4.5,7.75454011 4.67687516,7.55039163 4.91012437,7.50805567 L5,7.5 L7.49966667,7.49966667 L7.5,5 C7.5,4.72385763 7.72385763,4.5 8,4.5 Z" id="形状结合" fill="#00CCD9" fill-rule="nonzero"></path>
    </g>
</svg>