<?xml version="1.0" encoding="UTF-8"?>
<svg width="16px" height="17px" viewBox="0 0 16 17" version="1.1" xmlns="http://www.w3.org/2000/svg" xmlns:xlink="http://www.w3.org/1999/xlink">
    <title>切片</title>
    <g id="页面-1" stroke="none" stroke-width="1" fill="none" fill-rule="evenodd">
        <g id="页面说明-图标" transform="translate(-1107.000000, -306.000000)" fill="#FFFFFF">
            <g id="icon/完成" transform="translate(1107.000000, 306.500000)">
                <path d="M5.51014805,12.2435072 C5.46255941,12.1959186 5.42076984,12.1447269 5.38477934,12.0908102 L2.00457058,8.70797333 C1.61404629,8.31744904 1.61404629,7.68428406 2.00457058,7.29375977 C2.39509487,6.90323548 3.02825985,6.90323548 3.41878414,7.29375977 L6.23167736,10.1063326 L12.5812159,3.75822586 C12.9717402,3.36770157 13.6049051,3.36770157 13.9954294,3.75822586 C14.3859537,4.14875015 14.3859537,4.78191513 13.9954294,5.17243942 L7.07968675,12.0908102 C7.04369626,12.1447269 7.00190669,12.1959186 6.95431805,12.2435072 C6.77407607,12.4237492 6.54214731,12.5208026 6.30624265,12.5346674 L6.15822344,12.5346674 C5.92231878,12.5208026 5.69039003,12.4237492 5.51014805,12.2435072 Z" id="形状结合"></path>
            </g>
        </g>
    </g>
</svg>