<?xml version="1.0" encoding="UTF-8"?>
<svg width="48px" height="48px" viewBox="0 0 48 48" version="1.1" xmlns="http://www.w3.org/2000/svg" xmlns:xlink="http://www.w3.org/1999/xlink">
    <title>icon/告警等级-警告</title>
    <g id="icon/告警等级-警告" stroke="none" stroke-width="1" fill="none" fill-rule="evenodd">
        <path d="M28.0954446,36.0392062 C28.0954446,38.2269538 26.377004,40 24.2558451,40 C22.1350141,40 20.4165737,38.2269538 20.4165737,36.0392062 L28.0954446,36.0392062 Z M23.9953458,8 C25.5277654,8 26.8072348,9.17929589 26.9960954,10.7293693 L27.0126119,10.9090431 L27.0125832,11.0724555 C27.0102009,11.1767446 27.0030541,11.2817273 26.9909133,11.3849762 C31.4435797,12.8582799 34.4871536,17.0821547 34.5883923,21.8826496 L34.5908436,22.1898263 L34.5909668,26.2710205 C34.5936753,26.7313593 34.6559731,32.0252555 36.0888211,32.0252555 C36.6177242,31.9811732 37.1288034,32.2503484 37.4077853,32.7184792 C37.6867671,33.1870002 37.6867671,33.7772352 37.4077853,34.245366 C37.1541654,34.6712942 36.7116115,34.9324738 36.2329594,34.9430281 L36.0884337,34.9385898 L11.902258,34.9385898 C11.3694801,34.9756501 10.8618882,34.706475 10.5867811,34.2344431 C10.3112039,33.7622059 10.3153708,33.1757754 10.5976304,32.7075562 C10.8740397,32.243772 11.3887059,31.9790128 11.9239565,32.0252555 C13.3592277,31.9751915 13.3990963,26.5150134 13.4002038,26.2117088 L13.4002354,22.1906065 C13.4571942,17.2931776 16.502746,12.9672584 20.9997783,11.3927783 C20.9823419,11.230493 20.9745924,11.0717186 20.9784672,10.9098234 C21.0854102,9.27214559 22.4047618,8 23.9953458,8 Z M25.7220008,16.7295474 L25.6671606,16.7801719 L19.8466966,23.2253347 C19.6772868,23.4164266 19.6772868,23.6079483 19.7333842,23.7990277 C19.7821063,23.9631783 19.9135309,24.0804411 20.0570046,24.1105948 L20.1294185,24.1182263 L22.6724045,24.1182263 L21.5979974,28.9674087 C21.5415275,29.2227625 21.6514761,29.3797712 21.7905911,29.4919293 C21.9123166,29.5904324 22.1102021,29.6027453 22.2680038,29.4768519 L22.3328401,29.4142843 L28.1533042,22.9695511 C28.3227139,22.7784591 28.3227139,22.5869375 28.2666165,22.395858 C28.2178944,22.2313391 28.0864698,22.1143394 27.9429961,22.0842684 L27.8705821,22.0766595 L25.3275962,22.0766595 L26.4020143,17.2266177 C26.4584732,16.9716809 26.3455334,16.7163271 26.1757622,16.6524949 C26.0305445,16.5977708 25.843573,16.6368594 25.7220008,16.7295474 Z M13.837,12.6687025 C14.139652,13.1534026 14.0102624,13.8035865 13.548,14.1209289 C12.704,14.6997224 12.044,15.5804951 11.562,16.7926061 C11.074,18.0193966 10.9,19.6026903 11.056,21.5445845 C11.1023919,22.1219392 10.6936279,22.6294113 10.143,22.678055 C9.59237211,22.7266988 9.10839193,22.2980938 9.062,21.7207389 C8.882,19.4663803 9.092,17.5538453 9.716,15.9852311 C10.344,14.4019374 11.256,13.1856322 12.452,12.3656748 C12.9142623,12.0483324 13.534348,12.1840025 13.837,12.6687025 Z M35.5480001,12.3656748 C36.7420001,13.1856322 37.656,14.4019374 38.2840001,15.9852311 C38.9080001,17.5538453 39.1180001,19.4663803 38.9380001,21.7207389 C38.8916081,22.2980937 38.4076279,22.7266987 37.857,22.678055 C37.3063721,22.6294113 36.8976081,22.1219392 36.944,21.5445845 C37.1,19.6026903 36.926,18.0214937 36.438,16.7926061 C35.958,15.5804951 35.2960001,14.6997224 34.452,14.1209289 C34.1529687,13.9156444 33.9811006,13.5586788 34.0011367,13.1844978 C34.0211729,12.8103167 34.2300694,12.4757672 34.5491368,12.3068707 C34.8682042,12.1379742 35.2489687,12.1603902 35.5480001,12.3656748 Z M9.25827997,8.03558027 C9.60362933,8.13233371 9.8735174,8.41492217 9.96627998,8.77689728 C10.0590426,9.1388724 9.96058678,9.52524156 9.708,9.79046322 C8.48800001,11.0696807 7.568,12.6760423 6.948,14.6242276 C6.32,16.6059662 6,18.9442079 6,21.6326617 C6,22.2117537 5.55228475,22.6812006 5,22.6812006 C4.44771525,22.6812006 4,22.2117537 4,21.6326617 C4,18.7282089 4.348,16.171871 5.052,13.961551 C5.766,11.7134836 6.846,9.82191938 8.292,8.3078292 C8.54458678,8.04260753 8.91293062,7.93882682 9.25827997,8.03558027 Z M39.708,8.3078292 C41.154,9.82401647 42.234,11.7134836 42.948,13.961551 C43.652,16.171871 44,18.7282089 44,21.6326617 C44,22.2117537 43.5522848,22.6812006 43.0000001,22.6812006 C42.4477152,22.6812006 42,22.2117537 42,21.6326617 C42,18.9421108 41.6800001,16.6059662 41.052,14.6242276 C40.4320001,12.6760423 39.512,11.0696807 38.292,9.79046322 C37.9015347,9.38046604 37.9019825,8.71619874 38.2930001,8.30678066 C38.6840177,7.89736258 39.3175347,7.89783203 39.708,8.3078292 Z" id="形状结合" fill="#FF8400" fill-rule="nonzero"></path>
    </g>
</svg>