<?xml version="1.0" encoding="UTF-8"?>
<svg width="16px" height="16px" viewBox="0 0 16 16" version="1.1" xmlns="http://www.w3.org/2000/svg" xmlns:xlink="http://www.w3.org/1999/xlink">
    <title>icon/后退</title>
    <g id="icon/后退" stroke="none" stroke-width="1" fill="none" fill-rule="evenodd">
        <path d="M6.93958956,3.61881394 C7.13258054,3.45456216 7.42244403,3.45993687 7.60929407,3.63912313 C7.80860078,3.83025514 7.81522769,4.14676826 7.62409568,4.34607498 L7.62409568,4.34607498 L4.03505177,8.08896191 L7.613403,11.6466859 L7.64783601,11.6845607 C7.8085788,11.8804839 7.79797479,12.1702033 7.61544625,12.3537897 C7.42074915,12.5496153 7.10416798,12.5505301 6.90834242,12.355833 L6.90834242,12.355833 L2.98159521,8.4517139 L2.94756831,8.41433059 C2.78855115,8.22098737 2.79634457,7.93553562 2.97324877,7.75106524 L2.97324877,7.75106524 L6.90234222,3.65392474 Z M11.2729229,3.58451834 C11.4659139,3.42026656 11.7557774,3.42564128 11.9426274,3.60482754 C12.1419341,3.79595955 12.148561,4.11247267 11.957429,4.31177938 L11.957429,4.31177938 L8.36842284,8.05466566 L11.9467363,11.6123903 L11.9811693,11.6502651 C12.1419121,11.8461883 12.1313081,12.1359077 11.9487796,12.3194941 C11.7540825,12.5153197 11.4375013,12.5162345 11.2416758,12.3215374 L11.2416758,12.3215374 L7.31492854,8.41741831 L7.28090165,8.38003499 C7.12188448,8.18669178 7.12967791,7.90124002 7.3065821,7.71676965 L7.3065821,7.71676965 L11.2356756,3.61962914 Z" id="形状结合" fill="#888888" fill-rule="nonzero"></path>
    </g>
</svg>