<?xml version="1.0" encoding="UTF-8"?>
<svg width="16px" height="16px" viewBox="0 0 16 16" version="1.1" xmlns="http://www.w3.org/2000/svg" xmlns:xlink="http://www.w3.org/1999/xlink">
    <title>icon/按钮/返回顶部</title>
    <g id="icon/按钮/返回顶部" stroke="none" stroke-width="1" fill="none" fill-rule="evenodd">
        <path d="M8.36498688,5.06679789 L8.44798902,5.1359158 L13.1376952,9.80837211 C13.3724411,10.0422546 13.3731411,10.4221529 13.1392586,10.6568988 C12.9313631,10.8655618 12.608097,10.8892997 12.3739572,10.7277355 L12.2907319,10.6584622 L8.59999999,6.98 L8.6,13.9393617 C8.6,14.2707325 8.33137085,14.5393617 8,14.5393617 C7.70176624,14.5393617 7.45435325,14.3217721 7.40785299,14.0366848 L7.4,13.9393617 L7.39999999,7.028 L3.72348061,10.6931137 C3.51481709,10.9010087 3.19146566,10.9235544 2.95792316,10.761128 L2.87495392,10.6915482 C2.66705891,10.4828847 2.64451325,10.1595333 2.80693966,9.92599079 L2.87651939,9.84302155 L7.60102677,5.13591477 C7.80914643,4.92856162 8.13148552,4.90552275 8.36498688,5.06679789 Z M11.9393617,1.9 C12.2707325,1.9 12.5393617,2.16862915 12.5393617,2.5 C12.5393617,2.79823376 12.3217721,3.04564675 12.0366848,3.09214701 L11.9393617,3.1 L4,3.1 C3.66862915,3.1 3.4,2.83137085 3.4,2.5 C3.4,2.20176624 3.61758961,1.95435325 3.90267688,1.90785299 L4,1.9 L11.9393617,1.9 Z" id="形状结合" fill="#FFFFFF" fill-rule="nonzero"></path>
    </g>
</svg>