<?xml version="1.0" encoding="UTF-8"?>
<svg width="48px" height="48px" viewBox="0 0 48 48" version="1.1" xmlns="http://www.w3.org/2000/svg" xmlns:xlink="http://www.w3.org/1999/xlink">
    <title>icon/按钮图标/日历-normal</title>
    <g id="icon/按钮图标/日历-normal" stroke="none" stroke-width="1" fill="none" fill-rule="evenodd">
        <path d="M34.2162162,4.5 C34.9959123,4.5 35.6366649,5.09488808 35.7093496,5.85553999 L35.7162162,6 L35.716,9.364 L39.0810811,9.36486486 C41.4498032,9.36486486 43.3832228,11.2286162 43.4949043,13.5696832 L43.5,13.7837838 L43.5,37.1351351 C43.5,39.5756367 41.5215826,41.5540541 39.0810811,41.5540541 L39.0810811,41.5540541 L8.91891892,41.5540541 C6.47841739,41.5540541 4.5,39.5756367 4.5,37.1351351 L4.5,37.1351351 L4.5,13.7837838 C4.5,11.3432823 6.47841739,9.36486486 8.91891892,9.36486486 L8.91891892,9.36486486 L12.283,9.364 L12.2837838,6 C12.2837838,5.17157288 12.9553567,4.5 13.7837838,4.5 C14.5634799,4.5 15.2042325,5.09488808 15.2769172,5.85553999 L15.2837838,6 L15.283,9.364 L32.716,9.364 L32.7162162,6 C32.7162162,5.17157288 33.3877891,4.5 34.2162162,4.5 Z M40.5,21.121 L7.5,21.121 L7.5,37.1351351 C7.5,37.8726855 8.06273197,38.4788028 8.78226756,38.5475586 L8.91891892,38.5540541 L39.0810811,38.5540541 C39.8647284,38.5540541 40.5,37.9187824 40.5,37.1351351 L40.5,37.1351351 L40.5,21.121 Z M15.7297297,31.7432432 C16.5581569,31.7432432 17.2297297,32.4148161 17.2297297,33.2432432 C17.2297297,34.0229394 16.6348416,34.6636919 15.8741897,34.7363767 L15.7297297,34.7432432 L12.8108108,34.7432432 C11.9823837,34.7432432 11.3108108,34.0716704 11.3108108,33.2432432 C11.3108108,32.4635471 11.9056989,31.8227946 12.6663508,31.7501098 L12.8108108,31.7432432 L15.7297297,31.7432432 Z M25.4594595,31.7432432 C26.2878866,31.7432432 26.9594595,32.4148161 26.9594595,33.2432432 C26.9594595,34.0229394 26.3645714,34.6636919 25.6039195,34.7363767 L25.4594595,34.7432432 L22.5405405,34.7432432 C21.7121134,34.7432432 21.0405405,34.0716704 21.0405405,33.2432432 C21.0405405,32.4635471 21.6354286,31.8227946 22.3960805,31.7501098 L22.5405405,31.7432432 L25.4594595,31.7432432 Z M35.1891892,31.7432432 C36.0176163,31.7432432 36.6891892,32.4148161 36.6891892,33.2432432 C36.6891892,34.0229394 36.0943011,34.6636919 35.3336492,34.7363767 L35.1891892,34.7432432 L32.2702703,34.7432432 C31.4418431,34.7432432 30.7702703,34.0716704 30.7702703,33.2432432 C30.7702703,32.4635471 31.3651584,31.8227946 32.1258103,31.7501098 L32.2702703,31.7432432 L35.1891892,31.7432432 Z M15.7297297,24.9324324 C16.5581569,24.9324324 17.2297297,25.6040053 17.2297297,26.4324324 C17.2297297,27.2121285 16.6348416,27.8528811 15.8741897,27.9255659 L15.7297297,27.9324324 L12.8108108,27.9324324 C11.9823837,27.9324324 11.3108108,27.2608596 11.3108108,26.4324324 C11.3108108,25.6527363 11.9056989,25.0119838 12.6663508,24.939299 L12.8108108,24.9324324 L15.7297297,24.9324324 Z M25.4594595,24.9324324 C26.2878866,24.9324324 26.9594595,25.6040053 26.9594595,26.4324324 C26.9594595,27.2121285 26.3645714,27.8528811 25.6039195,27.9255659 L25.4594595,27.9324324 L22.5405405,27.9324324 C21.7121134,27.9324324 21.0405405,27.2608596 21.0405405,26.4324324 C21.0405405,25.6527363 21.6354286,25.0119838 22.3960805,24.939299 L22.5405405,24.9324324 L25.4594595,24.9324324 Z M35.1891892,24.9324324 C36.0176163,24.9324324 36.6891892,25.6040053 36.6891892,26.4324324 C36.6891892,27.2121285 36.0943011,27.8528811 35.3336492,27.9255659 L35.1891892,27.9324324 L32.2702703,27.9324324 C31.4418431,27.9324324 30.7702703,27.2608596 30.7702703,26.4324324 C30.7702703,25.6527363 31.3651584,25.0119838 32.1258103,24.939299 L32.2702703,24.9324324 L35.1891892,24.9324324 Z M12.283,12.364 L8.91891892,12.3648649 C8.13527164,12.3648649 7.5,13.0001365 7.5,13.7837838 L7.5,13.7837838 L7.5,18.121 L40.5,18.121 L40.5,13.7837838 C40.5,13.0462334 39.937268,12.4401161 39.2177324,12.3713603 L39.0810811,12.3648649 L35.716,12.364 L35.7162162,13.7837838 C35.7162162,14.6122109 35.0446433,15.2837838 34.2162162,15.2837838 C33.4365201,15.2837838 32.7957675,14.6888957 32.7230828,13.9282438 L32.7162162,13.7837838 L32.716,12.364 L15.283,12.364 L15.2837838,13.7837838 C15.2837838,14.6122109 14.6122109,15.2837838 13.7837838,15.2837838 C13.0040877,15.2837838 12.3633351,14.6888957 12.2906504,13.9282438 L12.2837838,13.7837838 L12.283,12.364 Z" id="形状结合" fill="#888888" fill-rule="nonzero"></path>
    </g>
</svg>