<?xml version="1.0" encoding="UTF-8"?>
<svg width="16px" height="16px" viewBox="0 0 16 16" version="1.1" xmlns="http://www.w3.org/2000/svg" xmlns:xlink="http://www.w3.org/1999/xlink">
    <title>icon/关闭/灰色</title>
    <g id="icon/关闭/灰色" stroke="none" stroke-width="1" fill="none" fill-rule="evenodd">
        <path d="M13.8280353,2.41196469 C14.0765508,2.66048015 14.0878469,3.05638478 13.8619238,3.31829926 L13.8280353,3.35477373 L9.06270254,8.11970254 L13.8280353,12.8852263 C14.0883848,13.1455758 14.0883848,13.5676858 13.8280353,13.8280353 C13.5795199,14.0765508 13.1836152,14.0878469 12.9217007,13.8619238 L12.8852263,13.8280353 L8.11970254,9.06270254 L3.35477373,13.8280353 C3.0944242,14.0883848 2.67231422,14.0883848 2.41196469,13.8280353 C2.16344923,13.5795199 2.15215307,13.1836152 2.37807622,12.9217007 L2.41196469,12.8852263 L7.17670254,8.11970254 L2.41196469,3.35477373 C2.15161516,3.0944242 2.15161516,2.67231422 2.41196469,2.41196469 C2.66048015,2.16344923 3.05638478,2.15215307 3.31829926,2.37807622 L3.35477373,2.41196469 L8.11970254,7.17670254 L12.8852263,2.41196469 C13.1455758,2.15161516 13.5676858,2.15161516 13.8280353,2.41196469 Z" id="形状结合" fill="#888888" fill-rule="nonzero"></path>
    </g>
</svg>