<?xml version="1.0" encoding="UTF-8"?>
<svg width="16px" height="16px" viewBox="0 0 16 16" version="1.1" xmlns="http://www.w3.org/2000/svg" xmlns:xlink="http://www.w3.org/1999/xlink">
    <title>icon/评论</title>
    <g id="icon/评论" stroke="none" stroke-width="1" fill="none" fill-rule="evenodd">
        <path d="M13.9418708,13.0032054 C14.2364226,13.0032054 14.4752041,13.2419869 14.4752041,13.5365387 C14.4752041,13.8147266 14.2622169,14.0431687 13.990415,14.0676925 L13.9418708,14.0698721 L2.0890917,14.0698721 C1.79453984,14.0698721 1.55575837,13.8310906 1.55575837,13.5365387 C1.55575837,13.2583509 1.76874554,13.0299088 2.0405475,13.005385 L2.0890917,13.0032054 L13.9418708,13.0032054 Z M10.257923,1.84757551 C10.6325075,1.47299099 11.239829,1.47299099 11.6144136,1.84757551 L11.6144136,1.84757551 L13.0274246,3.26058651 C13.4020091,3.63517104 13.4020091,4.24249255 13.0274246,4.61707707 L13.0274246,4.61707707 L7.21297466,10.431527 C7.15395098,10.4905506 7.08108949,10.5338582 7.00103537,10.5574998 L7.00103537,10.5574998 L4.50758187,10.9885586 C4.12965626,11.1001679 3.77716135,10.7510889 3.88508523,10.3720944 L3.88508523,10.3720944 L4.28281876,7.9119661 C4.30613135,7.83009967 4.34995826,7.75554025 4.41014791,7.6953506 L4.41014791,7.6953506 Z M10.9361683,2.5835438 L5.20907475,8.31063732 L4.859764,10.0076936 L6.59594685,9.63434121 L12.2914563,3.93883179 L10.9361683,2.5835438 Z" id="形状结合" fill="#888888" fill-rule="nonzero"></path>
    </g>
</svg>