<?xml version="1.0" encoding="UTF-8"?>
<svg width="16px" height="16px" viewBox="0 0 16 16" version="1.1" xmlns="http://www.w3.org/2000/svg" xmlns:xlink="http://www.w3.org/1999/xlink">
    <title>icon/按钮/复制</title>
    <g id="icon/按钮/复制" stroke="none" stroke-width="1" fill="none" fill-rule="evenodd">
        <path d="M10.2425609,4.43939394 C10.9704972,4.43939394 11.5606061,5.02950284 11.5606061,5.75743905 L11.5606061,5.75743905 L11.5606061,12.8486216 C11.5606061,13.5765578 10.9704972,14.1666667 10.2425609,14.1666667 L10.2425609,14.1666667 L3.15137845,14.1666667 C2.42344223,14.1666667 1.83333333,13.5765578 1.83333333,12.8486216 L1.83333333,12.8486216 L1.83333333,5.75743905 C1.83333333,5.02950284 2.42344223,4.43939394 3.15137845,4.43939394 L3.15137845,4.43939394 Z M10.2425609,5.43939394 L3.15137845,5.43939394 C2.97572698,5.43939394 2.83333333,5.58178759 2.83333333,5.75743905 L2.83333333,5.75743905 L2.83333333,12.8486216 C2.83333333,13.024273 2.97572698,13.1666667 3.15137845,13.1666667 L3.15137845,13.1666667 L10.2425609,13.1666667 C10.4182124,13.1666667 10.5606061,13.024273 10.5606061,12.8486216 L10.5606061,12.8486216 L10.5606061,5.75743905 C10.5606061,5.58178759 10.4182124,5.43939394 10.2425609,5.43939394 L10.2425609,5.43939394 Z M12.7939394,1.5 C13.5074795,1.5 14.0938652,2.04441273 14.1603827,2.74052448 L14.1666667,2.87272727 L14.1666667,9.85454545 C14.1666667,10.6126818 13.5520757,11.2272727 12.7939394,11.2272727 C12.517797,11.2272727 12.2939394,11.0034151 12.2939394,10.7272727 C12.2939394,10.4818128 12.4708146,10.2776644 12.7040638,10.2353284 L12.7939394,10.2272727 C12.9740595,10.2272727 13.1243387,10.0995085 13.1590942,9.929663 L13.1666667,9.85454545 L13.1666667,2.87272727 C13.1666667,2.69260713 13.0389025,2.54232792 12.8690569,2.50757249 L12.7939394,2.5 L5.81212121,2.5 C5.63200107,2.5 5.48172186,2.6277642 5.44696643,2.79760973 L5.43939394,2.87272727 C5.43939394,3.14886965 5.21553631,3.37272727 4.93939394,3.37272727 C4.66325156,3.37272727 4.43939394,3.14886965 4.43939394,2.87272727 C4.43939394,2.15918719 4.98380667,1.57280151 5.67991841,1.50628396 L5.81212121,1.5 L12.7939394,1.5 Z M8.6856544,9.56060603 C8.96179597,9.55993691 9.18619658,9.78325022 9.18686872,10.0593918 C9.18746333,10.3048509 9.01108448,10.5094284 8.77793877,10.5523307 L8.68808297,10.560606 L4.39515368,10.5710318 C4.11901212,10.5717009 3.8946115,10.3483876 3.89393936,10.072246 C3.89334475,9.82678686 4.0697236,9.62220943 4.30286931,9.57930713 L4.39272511,9.57103322 L8.6856544,9.56060603 Z M8.85858586,7.16699134 C9.13472823,7.16699134 9.35858586,7.39084897 9.35858586,7.66699134 C9.35858586,7.91245123 9.1817107,8.11659971 8.94846149,8.15893567 L8.85858586,8.16699134 L4.39393939,8.16699134 C4.11779702,8.16699134 3.89393939,7.94313372 3.89393939,7.66699134 C3.89393939,7.42153145 4.07081455,7.21738297 4.30406376,7.17504701 L4.39393939,7.16699134 L8.85858586,7.16699134 Z" id="形状结合" fill="#888888" fill-rule="nonzero"></path>
    </g>
</svg>