<?xml version="1.0" encoding="UTF-8"?>
<svg width="16px" height="16px" viewBox="0 0 16 16" version="1.1" xmlns="http://www.w3.org/2000/svg" xmlns:xlink="http://www.w3.org/1999/xlink">
    <title>icon/添加/填充色</title>
    <g id="icon/添加/填充色" stroke="none" stroke-width="1" fill="none" fill-rule="evenodd">
        <path d="M8,0.666666667 C12.0500882,0.666666667 15.3333333,3.94991183 15.3333333,8 C15.3333333,12.0500882 12.0500882,15.3333333 8,15.3333333 C3.94991183,15.3333333 0.666666667,12.0500882 0.666666667,8 C0.666666667,3.94991183 3.94991183,0.666666667 8,0.666666667 Z M8,4.33333333 C7.63181017,4.33333333 7.33333333,4.63181017 7.33333333,5 L7.33333333,5 L7.33233333,7.33333333 L5,7.33333333 L4.95024589,7.33516191 C4.6052926,7.36061163 4.33333333,7.64854607 4.33333333,8 C4.33333333,8.36818983 4.63181017,8.66666667 5,8.66666667 L5,8.66666667 L7.33233333,8.66633333 L7.33333333,11 L7.33516191,11.0497541 C7.36061163,11.3947074 7.64854607,11.6666667 8,11.6666667 C8.36818983,11.6666667 8.66666667,11.3681898 8.66666667,11 L8.66666667,11 L8.66633333,8.66633333 L11,8.66666667 L11.0497541,8.66483809 C11.3947074,8.63938837 11.6666667,8.35145393 11.6666667,8 C11.6666667,7.63181017 11.3681898,7.33333333 11,7.33333333 L11,7.33333333 L8.66633333,7.33333333 L8.66666667,5 L8.66483809,4.95024589 C8.63938837,4.6052926 8.35145393,4.33333333 8,4.33333333 Z" id="形状结合" fill="#00CCD9"></path>
    </g>
</svg>