<?xml version="1.0" encoding="UTF-8"?>
<svg width="16px" height="16px" viewBox="0 0 16 16" version="1.1" xmlns="http://www.w3.org/2000/svg" xmlns:xlink="http://www.w3.org/1999/xlink">
    <title>icon/按钮/下载</title>
    <g id="icon/按钮/下载" stroke="none" stroke-width="1" fill="none" fill-rule="evenodd">
        <path d="M13.972973,9.75965503 C14.2469203,9.75965503 14.4720495,9.96866976 14.4975874,10.2359258 L14.5,10.2866821 L14.5,12.5090055 C14.5,13.294981 13.880704,13.9359522 13.1032113,13.9740771 L13.029872,13.9758712 L2.97012802,13.9758712 C2.18319832,13.9758712 1.54005598,13.3587175 1.50180027,12.5822519 L1.5,12.5090055 L1.5,10.3241548 C1.5,10.0330859 1.73595804,9.79712782 2.02702703,9.79712782 C2.30097431,9.79712782 2.52610359,10.0061426 2.55164147,10.2733986 L2.55405405,10.3241548 L2.55405405,12.5090055 C2.55405405,12.7223618 2.71742043,12.8984978 2.92751964,12.9196814 L2.97012802,12.9218172 L13.029872,12.9218172 C13.2456839,12.9218172 13.4225385,12.7590159 13.4438023,12.5511456 L13.4459459,12.5090055 L13.4459459,10.2866821 C13.4459459,9.99561307 13.681904,9.75965503 13.972973,9.75965503 Z M8.06474026,2 C8.33868611,2.00008191 8.56381539,2.20909664 8.58935327,2.47635272 L8.59176586,2.52710894 L8.591,8.852 L10.857256,6.72050947 C11.0692577,6.52106921 11.4027974,6.53125229 11.6022377,6.74325403 C11.7892129,6.94200566 11.7919489,7.24757772 11.6168765,7.44933156 L11.5794931,7.48823568 L8.31149999,10.5625945 C8.11795817,10.7446686 7.82190654,10.7526648 7.61941229,10.5889193 L7.58021897,10.553881 L4.46415662,7.47924277 C4.25696721,7.27480768 4.25473439,6.94112009 4.45916948,6.73393068 C4.65082737,6.53969061 4.9560861,6.52558817 5.16421359,6.69303344 L5.20448156,6.72894354 L7.537,9.03 L7.5377118,2.52710894 C7.5377118,2.23603995 7.77366984,2.00008191 8.06474026,2 Z" id="形状结合" fill="#888888" fill-rule="nonzero"></path>
    </g>
</svg>