<?xml version="1.0" encoding="UTF-8"?>
<svg width="16px" height="16px" viewBox="0 0 16 16" version="1.1" xmlns="http://www.w3.org/2000/svg" xmlns:xlink="http://www.w3.org/1999/xlink">
    <title>icon/前进</title>
    <g id="icon/前进" stroke="none" stroke-width="1" fill="none" fill-rule="evenodd">
        <path d="M4.72707679,3.61881394 L4.76432413,3.65392474 L8.69341759,7.75106524 C8.87032178,7.93553562 8.87811521,8.22098737 8.71909804,8.41433059 L8.68507115,8.4517139 L4.75832393,12.355833 C4.56249837,12.5505301 4.2459172,12.5496153 4.0512201,12.3537897 C3.86869157,12.1702033 3.85808755,11.8804839 4.01883034,11.6845607 L4.05326335,11.6466859 L7.63161458,8.08896191 L4.04257067,4.34607498 C3.85143866,4.14676826 3.85806557,3.83025514 4.05737228,3.63912313 C4.24422233,3.45993687 4.53408581,3.45456216 4.72707679,3.61881394 Z M9.06041013,3.58451834 L9.09765746,3.61962914 L13.0267509,7.71676965 C13.2036551,7.90124002 13.2114485,8.18669178 13.0524314,8.38003499 L13.0184045,8.41741831 L9.09165726,12.3215374 C8.8958317,12.5162345 8.57925054,12.5153197 8.38455343,12.3194941 C8.2020249,12.1359077 8.19142089,11.8461883 8.35216368,11.6502651 L8.38659669,11.6123903 L11.9649102,8.05466566 L8.37590401,4.31177938 C8.184772,4.11247267 8.1913989,3.79595955 8.39070562,3.60482754 C8.57755566,3.42564128 8.86741915,3.42026656 9.06041013,3.58451834 Z" id="形状结合" fill="#888888" fill-rule="nonzero"></path>
    </g>
</svg>