<?xml version="1.0" encoding="UTF-8"?>
<svg width="16px" height="16px" viewBox="0 0 16 16" version="1.1" xmlns="http://www.w3.org/2000/svg" xmlns:xlink="http://www.w3.org/1999/xlink">
    <title>icon/控件清除全部备份 5</title>
    <g id="icon/控件清除全部备份-5" stroke="none" stroke-width="1" fill="none" fill-rule="evenodd">
        <g id="编组" transform="translate(1.500000, 1.500000)" fill="#888888">
            <g transform="translate(0.500000, 0.500000)" id="icon/标签关闭">
                <path d="M8.29809704,2.99479618 C8.39572811,2.89716511 8.55401936,2.89716511 8.65165043,2.99479618 L8.65165043,2.99479618 L9.00520382,3.34834957 C9.10283489,3.44598064 9.10283489,3.60427189 9.00520382,3.70190296 L9.00520382,3.70190296 L6.70712627,5.99912627 L9.00520382,8.29809704 C9.10283489,8.39572811 9.10283489,8.55401936 9.00520382,8.65165043 L8.65165043,9.00520382 C8.55401936,9.10283489 8.39572811,9.10283489 8.29809704,9.00520382 L5.99912627,6.70712627 L3.70190296,9.00520382 C3.62054373,9.08656305 3.49705939,9.10012292 3.40165845,9.04588343 L3.34834957,9.00520382 L2.99479618,8.65165043 C2.89716511,8.55401936 2.89716511,8.39572811 2.99479618,8.29809704 L2.99479618,8.29809704 L5.29312627,5.99912627 L2.99479618,3.70190296 C2.89716511,3.60427189 2.89716511,3.44598064 2.99479618,3.34834957 L3.34834957,2.99479618 C3.44598064,2.89716511 3.60427189,2.89716511 3.70190296,2.99479618 L5.99912627,5.29312627 Z" id="形状结合"></path>
            </g>
        </g>
    </g>
</svg>