<?xml version="1.0" encoding="UTF-8"?>
<svg width="16px" height="16px" viewBox="0 0 16 16" version="1.1" xmlns="http://www.w3.org/2000/svg" xmlns:xlink="http://www.w3.org/1999/xlink">
    <title>icon/按钮/查看</title>
    <g id="icon/按钮/查看" stroke="none" stroke-width="1" fill="none" fill-rule="evenodd">
        <path d="M11.0979339,8.33915441 C12.5296874,8.33915441 13.690353,9.49982 13.690353,10.9315736 C13.690353,11.4663301 13.5284396,11.9632697 13.2509626,12.3760427 L14.0051725,13.1317054 C14.2004347,13.3269676 14.2004347,13.6435501 14.0051725,13.8388122 C13.8316062,14.0123786 13.5621818,14.0316637 13.3673136,13.8966677 L13.2980657,13.8388122 L12.543677,13.0837454 C12.1306527,13.3617459 11.6332406,13.5239927 11.0979339,13.5239927 C9.66618029,13.5239927 8.50551471,12.3633271 8.50551471,10.9315736 C8.50551471,9.49982 9.66618029,8.33915441 11.0979339,8.33915441 Z M12.2656513,2 C13.0491518,2 13.7126939,2.54884785 13.7880466,3.27665528 L13.7951681,3.41512605 L13.7951681,7.15788937 C13.7951681,7.43403174 13.5713104,7.65788937 13.2951681,7.65788937 C13.0497082,7.65788937 12.8455597,7.48101421 12.8032237,7.247765 L12.7951681,7.15788937 L12.7951681,3.41512605 C12.7951681,3.22375534 12.6175378,3.0445984 12.3640614,3.00714834 L12.2656513,3 L4.02951681,3 C3.75866921,3 3.5509448,3.15789354 3.50812762,3.34418747 L3.5,3.41512605 L3.5,12.5663866 C3.5,12.7577573 3.67763023,12.9369142 3.93110665,12.9743643 L4.02951681,12.9815126 L7.19247873,12.9815126 C7.4686211,12.9815126 7.69247873,13.2053702 7.69247873,13.4815126 C7.69247873,13.7269725 7.51560357,13.931121 7.28235436,13.9734569 L7.19247873,13.9815126 L4.02951681,13.9815126 C3.24601628,13.9815126 2.58247418,13.4326648 2.50712147,12.7048573 L2.5,12.5663866 L2.5,3.41512605 C2.5,2.66639355 3.11745383,2.07350261 3.88413053,2.00634151 L4.02951681,2 L12.2656513,2 Z M11.0979339,9.33915441 C10.218465,9.33915441 9.50551471,10.0521048 9.50551471,10.9315736 C9.50551471,11.8110424 10.218465,12.5239927 11.0979339,12.5239927 C11.9774027,12.5239927 12.690353,11.8110424 12.690353,10.9315736 C12.690353,10.0521048 11.9774027,9.33915441 11.0979339,9.33915441 Z M7.4612395,6.80441176 C7.73738187,6.80441176 7.9612395,7.02826939 7.9612395,7.30441176 C7.9612395,7.54987165 7.78436434,7.75402014 7.55111513,7.7963561 L7.4612395,7.80441176 L5.40220588,7.80441176 C5.12606351,7.80441176 4.90220588,7.58055414 4.90220588,7.30441176 C4.90220588,7.05895188 5.07908104,6.85480339 5.31233025,6.81246743 L5.40220588,6.80441176 L7.4612395,6.80441176 Z M10.8929622,4.40220588 C11.1691046,4.40220588 11.3929622,4.62606351 11.3929622,4.90220588 C11.3929622,5.14766577 11.216087,5.35181425 10.9828378,5.39415021 L10.8929622,5.40220588 L5.40220588,5.40220588 C5.12606351,5.40220588 4.90220588,5.17834826 4.90220588,4.90220588 C4.90220588,4.65674599 5.07908104,4.45259751 5.31233025,4.41026155 L5.40220588,4.40220588 L10.8929622,4.40220588 Z" id="形状结合" fill="#888888" fill-rule="nonzero"></path>
    </g>
</svg>