<?xml version="1.0" encoding="UTF-8"?>
<svg width="16px" height="16px" viewBox="0 0 16 16" version="1.1" xmlns="http://www.w3.org/2000/svg" xmlns:xlink="http://www.w3.org/1999/xlink">
    <title>icon/按钮/更多</title>
    <g id="icon/按钮/更多" stroke="none" stroke-width="1" fill="none" fill-rule="evenodd">
        <path d="M3,6.66666667 C3.73637967,6.66666667 4.33333333,7.26362033 4.33333333,8 C4.33333333,8.73637967 3.73637967,9.33333333 3,9.33333333 C2.26362033,9.33333333 1.66666667,8.73637967 1.66666667,8 C1.66666667,7.26362033 2.26362033,6.66666667 3,6.66666667 Z M8,6.66666667 C8.73637967,6.66666667 9.33333333,7.26362033 9.33333333,8 C9.33333333,8.73637967 8.73637967,9.33333333 8,9.33333333 C7.26362033,9.33333333 6.66666667,8.73637967 6.66666667,8 C6.66666667,7.26362033 7.26362033,6.66666667 8,6.66666667 Z M13,6.66666667 C13.7363797,6.66666667 14.3333333,7.26362033 14.3333333,8 C14.3333333,8.73637967 13.7363797,9.33333333 13,9.33333333 C12.2636203,9.33333333 11.6666667,8.73637967 11.6666667,8 C11.6666667,7.26362033 12.2636203,6.66666667 13,6.66666667 Z" id="形状结合" fill="#888888"></path>
    </g>
</svg>