<?xml version="1.0" encoding="UTF-8"?>
<svg width="16px" height="16px" viewBox="0 0 16 16" version="1.1" xmlns="http://www.w3.org/2000/svg" xmlns:xlink="http://www.w3.org/1999/xlink">
    <title>icon/删减/normal</title>
    <g id="icon/删减/normal" stroke="none" stroke-width="1" fill="none" fill-rule="evenodd">
        <path d="M8,0.5 C12.1421356,0.5 15.5,3.85786438 15.5,8 C15.5,12.1421356 12.1421356,15.5 8,15.5 C3.85786438,15.5 0.5,12.1421356 0.5,8 C0.5,3.85786438 3.85786438,0.5 8,0.5 Z M8,1.5 C4.41014913,1.5 1.5,4.41014913 1.5,8 C1.5,11.5898509 4.41014913,14.5 8,14.5 C11.5898509,14.5 14.5,11.5898509 14.5,8 C14.5,4.41014913 11.5898509,1.5 8,1.5 Z M11,7.5 C11.2761424,7.5 11.5,7.72385763 11.5,8 C11.5,8.24545989 11.3231248,8.44960837 11.0898756,8.49194433 L11,8.5 L5,8.5 C4.72385763,8.5 4.5,8.27614237 4.5,8 C4.5,7.75454011 4.67687516,7.55039163 4.91012437,7.50805567 L5,7.5 L11,7.5 Z" id="形状结合" fill="#00CCD9" fill-rule="nonzero"></path>
    </g>
</svg>