<?xml version="1.0" encoding="UTF-8"?>
<svg width="16px" height="16px" viewBox="0 0 16 16" version="1.1" xmlns="http://www.w3.org/2000/svg" xmlns:xlink="http://www.w3.org/1999/xlink">
    <title>icon/按钮/还原</title>
    <g id="icon/按钮/还原" stroke="none" stroke-width="1" fill="none" fill-rule="evenodd">
        <path d="M6.02064698,1.9605421 C6.46718283,1.51400625 7.1911605,1.51400625 7.63768174,1.96052749 L7.63768174,1.96052749 L9.55872489,3.88114486 L10.5703599,2.87048469 C11.233279,2.20756561 12.287489,2.17441965 12.9895371,2.77104683 L12.9895371,2.77104683 L13.0973519,2.87048469 C13.7951615,3.56829425 13.7951615,4.69966709 13.0973032,5.39752533 L13.0973032,5.39752533 L12.0859245,6.40834449 L14.0072945,8.33014024 C14.4240613,8.74690704 14.4518457,9.40535648 14.0906478,9.85434763 L14.0906478,9.85434763 L14.0072945,9.94718961 L9.45758153,14.4969026 C9.01104568,14.9434384 8.28706801,14.9434384 7.84053216,14.4969026 L7.84053216,14.4969026 L1.47093402,8.12730443 C1.02439817,7.68076857 1.02439817,6.95679091 1.47093402,6.51025506 L1.47093402,6.51025506 Z M4.55403213,4.84063838 L2.1780408,7.21736184 C2.12202924,7.2733734 2.12202924,7.36418608 2.1780408,7.42019765 L2.1780408,7.42019765 L3.18903213,8.43063838 L3.97327615,7.64768329 C4.16853829,7.45242115 4.48512078,7.45242115 4.68038293,7.64768329 C4.85394928,7.82124965 4.87323443,8.09067405 4.73823838,8.28554219 L4.68038293,8.35479008 L3.89603213,9.13763838 L5.00903213,10.2506384 L6.24813262,9.01259718 C6.44339477,8.81733504 6.75997726,8.81733504 6.95523941,9.01259718 C7.12880576,9.18616353 7.14809091,9.45558793 7.01309486,9.65045608 L6.95523941,9.71970396 L5.71603213,10.9576384 L6.82903213,12.0706384 L7.61304651,11.2874537 C7.80830866,11.0921915 8.12489115,11.0921915 8.32015329,11.2874537 C8.49371964,11.46102 8.51300479,11.7304444 8.37800874,11.9253126 L8.32015329,11.9945604 L7.53603213,12.7776384 L8.54763894,13.7897958 C8.59244819,13.834605 8.65953016,13.8435669 8.7132485,13.8166813 L8.75047475,13.7897958 L11.1270321,11.4136384 L4.55403213,4.84063838 Z M6.93058957,2.66764888 C6.87457801,2.61163732 6.78376532,2.61163732 6.72775376,2.66764888 L6.72775376,2.66764888 L5.26103213,4.13363838 L11.8340321,10.7066384 L13.3001877,9.24008283 C13.344997,9.19527358 13.3539588,9.12819161 13.3270658,9.0744658 L13.3001731,9.03723242 L10.6716498,6.40849197 L12.3902451,4.69036987 C12.6975304,4.3830846 12.6975304,3.88487674 12.3902451,3.57759147 C12.0829598,3.2703062 11.584752,3.2703062 11.2773642,3.57769394 L11.2773642,3.57769394 L9.55860994,5.29545213 Z" id="形状结合" fill="#888888" fill-rule="nonzero"></path>
    </g>
</svg>