<?xml version="1.0" encoding="UTF-8"?>
<svg width="16px" height="16px" viewBox="0 0 16 16" version="1.1" xmlns="http://www.w3.org/2000/svg" xmlns:xlink="http://www.w3.org/1999/xlink">
    <title>icon/按钮/筛选</title>
    <g id="icon/按钮/筛选" stroke="none" stroke-width="1" fill="none" fill-rule="evenodd">
        <path d="M2.6311458,2.79100494 L10.7139534,2.79559586 C11.2644703,2.79591766 11.7104974,3.24245428 11.7101868,3.79297182 C11.7100511,4.02851862 11.6265205,4.25611483 11.4592109,4.45325934 L11.4592109,4.45325934 L11.4115319,4.50383953 L10.3230308,5.59191354 L9.30070097,6.61200289 L8.49806515,7.40787589 C8.4151466,7.48816859 8.39291635,7.54057269 8.39290424,7.65221685 L8.39290424,7.65221685 L8.3974281,8.5749654 L8.39817557,12.7075128 L8.39759899,12.775598 C8.38897839,13.2652546 8.28011219,13.5447522 7.8325674,13.7337663 C7.59517208,13.8295026 7.35868106,13.8203206 7.14723878,13.7136556 C7.04781274,13.6634988 6.98190289,13.6146594 6.89530787,13.5314391 L6.89530787,13.5314391 L5.86376581,12.4952653 L5.59968258,12.2358729 L5.3543538,12.0011767 C5.05654374,11.7190366 4.92215941,11.3796017 4.92993171,10.9688501 L4.92993171,10.9688501 L4.93203281,10.7365506 L4.93299209,8.75383598 L4.93525726,8.0790223 L4.94052288,7.64563799 C4.94280472,7.53854283 4.92292577,7.49275754 4.83194913,7.40462979 L4.83194913,7.40462979 L4.56623685,7.1418174 L1.9218014,4.50383953 C1.52980407,4.11239393 1.52935681,3.47728795 1.92080242,3.08529062 C2.10909951,2.89672814 2.36468974,2.79084235 2.6311458,2.79100494 L2.6311458,2.79100494 Z M13.5814527,12.0333333 C13.8391856,12.0333333 14.0481194,12.2422671 14.0481194,12.5 C14.0481194,12.7425721 13.8630431,12.9419174 13.6263958,12.9645304 L13.5814527,12.9666667 L10.6666667,12.9666667 C10.4089338,12.9666667 10.2,12.7577329 10.2,12.5 C10.2,12.2574279 10.3850763,12.0580826 10.6217236,12.0354696 L10.6666667,12.0333333 L13.5814527,12.0333333 Z M2.63059214,3.72434037 C2.61208004,3.72434037 2.59432064,3.73168629 2.58123335,3.74479202 C2.55402031,3.77204342 2.5540514,3.81619556 2.58146881,3.84357447 L2.58146881,3.84357447 L4.08795862,5.34923991 L5.48453251,6.73737834 C5.75419995,6.99850599 5.88160406,7.29194381 5.87367573,7.66392256 C5.87329294,7.68532849 5.87292751,7.70698393 5.87257887,7.72894889 L5.87257887,7.72894889 L5.86799744,8.17071181 L5.86704242,10.2580752 L5.86356049,11.0333318 C5.86852448,11.1603884 5.90532025,11.2374768 5.99570605,11.3231075 L5.99570605,11.3231075 L6.24144299,11.5580806 L6.546024,11.8574256 L7.46433333,12.7796667 L7.46571198,9.36183471 L7.45958301,7.65557881 C7.45958301,7.28767606 7.58442496,6.993382 7.84548176,6.74062445 L7.84548176,6.74062445 L8.09380412,6.4950323 L10.7618818,3.83335068 C10.7715207,3.82193971 10.7768517,3.80743766 10.7768517,3.79244196 C10.7768517,3.75738615 10.7484674,3.72894953 10.7134157,3.72892904 L10.7134157,3.72892904 Z M13.5814527,9.7 C13.8391856,9.7 14.0481194,9.90893378 14.0481194,10.1666667 C14.0481194,10.4092388 13.8630431,10.608584 13.6263958,10.6311971 L13.5814527,10.6333333 L10.6666667,10.6333333 C10.4089338,10.6333333 10.2,10.4243995 10.2,10.1666667 C10.2,9.92409454 10.3850763,9.7247493 10.6217236,9.70213627 L10.6666667,9.7 L13.5814527,9.7 Z M13.5814527,7.36666667 C13.8391856,7.36666667 14.0481194,7.57560045 14.0481194,7.83333333 C14.0481194,8.07590546 13.8630431,8.2752507 13.6263958,8.29786373 L13.5814527,8.3 L10.6666667,8.3 C10.4089338,8.3 10.2,8.09106622 10.2,7.83333333 C10.2,7.59076121 10.3850763,7.39141597 10.6217236,7.36880294 L10.6666667,7.36666667 L13.5814527,7.36666667 Z" id="形状结合" fill="#888888" fill-rule="nonzero"></path>
    </g>
</svg>