<?xml version="1.0" encoding="UTF-8"?>
<svg width="48px" height="48px" viewBox="0 0 48 48" version="1.1" xmlns="http://www.w3.org/2000/svg" xmlns:xlink="http://www.w3.org/1999/xlink">
    <title>icon/搜索/灰色</title>
    <g id="icon/搜索/灰色" stroke="none" stroke-width="1" fill="none" fill-rule="evenodd">
        <path d="M22.2307692,5.25 C31.6089891,5.25 39.2115385,12.8525493 39.2115385,22.2307692 C39.2115385,26.2895292 37.7875543,30.0156998 35.4119261,32.936941 L42.0565425,39.5816688 C42.73996,40.2650863 42.73996,41.373125 42.0565425,42.0565425 C41.413326,42.699759 40.3939745,42.7375952 39.7065068,42.1700513 L39.5816688,42.0565425 L32.936941,35.4119261 C30.0156998,37.7875543 26.2895292,39.2115385 22.2307692,39.2115385 C12.8525493,39.2115385 5.25,31.6089891 5.25,22.2307692 C5.25,12.8525493 12.8525493,5.25 22.2307692,5.25 Z M22.2307692,8.75 C14.785546,8.75 8.75,14.785546 8.75,22.2307692 C8.75,29.6759925 14.785546,35.7115385 22.2307692,35.7115385 C29.6759925,35.7115385 35.7115385,29.6759925 35.7115385,22.2307692 C35.7115385,14.785546 29.6759925,8.75 22.2307692,8.75 Z" id="形状结合" fill="#888888" fill-rule="nonzero"></path>
    </g>
</svg>