<?xml version="1.0" encoding="UTF-8"?>
<svg width="16px" height="16px" viewBox="0 0 16 16" version="1.1" xmlns="http://www.w3.org/2000/svg" xmlns:xlink="http://www.w3.org/1999/xlink">
    <title>icon/暂停</title>
    <g id="icon/暂停" stroke="none" stroke-width="1" fill="none" fill-rule="evenodd">
        <path d="M10.6666667,2.90192452 C10.942809,2.90192452 11.1666667,3.12578215 11.1666667,3.40192452 L11.1666667,3.40192452 L11.1666667,12.7352579 L11.1643778,12.7834112 C11.1401496,13.0369618 10.9265654,13.2352579 10.6666667,13.2352579 C10.3905243,13.2352579 10.1666667,13.0114002 10.1666667,12.7352579 L10.1666667,12.7352579 L10.1666667,3.40192452 L10.1689555,3.35377118 C10.1931838,3.10022055 10.406768,2.90192452 10.6666667,2.90192452 Z M5.33333333,2.90192452 C5.60947571,2.90192452 5.83333333,3.12578215 5.83333333,3.40192452 L5.83333333,3.40192452 L5.83333333,12.7352579 L5.83104447,12.7834112 C5.80681623,13.0369618 5.59323204,13.2352579 5.33333333,13.2352579 C5.05719096,13.2352579 4.83333333,13.0114002 4.83333333,12.7352579 L4.83333333,12.7352579 L4.83333333,3.40192452 L4.83562219,3.35377118 C4.85985044,3.10022055 5.07343463,2.90192452 5.33333333,2.90192452 Z" id="形状结合" fill="#FFFFFF" fill-rule="nonzero"></path>
    </g>
</svg>