<?xml version="1.0" encoding="UTF-8"?>
<svg width="48px" height="48px" viewBox="0 0 48 48" version="1.1" xmlns="http://www.w3.org/2000/svg" xmlns:xlink="http://www.w3.org/1999/xlink">
    <title>icon/提示/严重警告-面</title>
    <g id="icon/提示/严重警告-面" stroke="none" stroke-width="1" fill="none" fill-rule="evenodd">
        <path d="M24,1 C36.7025492,1 47,11.2974508 47,24 C47,36.7025492 36.7025492,47 24,47 C11.2974508,47 1,36.7025492 1,24 C1,11.2974508 11.2974508,1 24,1 Z M24.0491362,32.5050479 C22.6615897,32.5927173 21.5987415,33.7736273 21.6571727,35.1627123 C21.7156038,36.5517972 22.8738706,37.6392772 24.263878,37.6101102 C25.6538853,37.5809433 26.7655149,36.4458334 26.7656251,35.0555201 C26.7143264,33.6035586 25.5014461,32.4648028 24.0491362,32.5050479 Z M24.0491362,10.6071197 C23.3102865,10.5844475 22.5947604,10.867319 22.0711457,11.3890856 C21.547531,11.9108523 21.2621315,12.6253738 21.2821912,13.364299 L22.1415717,27.5636096 C22.261264,28.5288137 23.0814219,29.253548 24.054019,29.253548 C25.0266161,29.253548 25.8467739,28.5288137 25.9664663,27.5636096 L26.8258468,13.364299 C26.8460418,12.623622 26.5593251,11.9075114 26.0335469,11.3854316 C25.5077687,10.8633517 24.7896521,10.5816969 24.0491362,10.6071197 Z" id="形状结合" fill="#FF3C48" fill-rule="nonzero"></path>
    </g>
</svg>