<?xml version="1.0" encoding="UTF-8"?>
<svg width="48px" height="48px" viewBox="0 0 48 48" version="1.1" xmlns="http://www.w3.org/2000/svg" xmlns:xlink="http://www.w3.org/1999/xlink">
    <title>icon/提示/成功；完成类-面</title>
    <g id="icon/提示/成功；完成类-面" stroke="none" stroke-width="1" fill="none" fill-rule="evenodd">
        <path d="M24,1 C36.7025492,1 47,11.2974508 47,24 C47,36.7025492 36.7025492,47 24,47 C11.2974508,47 1,36.7025492 1,24 C1,11.2974508 11.2974508,1 24,1 Z M35.3631842,16.5365354 C34.554935,15.7836695 33.2894012,15.8285666 32.5365354,16.6368158 L32.5365354,16.6368158 L21.885,28.07 L15.4589411,21.2167725 L15.3355475,21.0959109 C14.5714471,20.4089425 13.3953186,20.410082 12.6319756,21.1258558 C11.8262246,21.8813948 11.7855199,23.1470704 12.5410589,23.9528213 L12.5410589,23.9528213 L20.4318526,32.3680244 L20.5546236,32.4883561 C21.3565274,33.2102379 22.6045977,33.1679924 23.3542584,32.3631842 L23.3542584,32.3631842 L35.4634646,19.3631842 L35.5757136,19.2319072 C36.2094899,18.4231411 36.128894,17.2497767 35.3631842,16.5365354 Z" id="形状结合" fill="#00CB6B" fill-rule="nonzero"></path>
    </g>
</svg>