<?xml version="1.0" encoding="UTF-8"?>
<svg width="16px" height="16px" viewBox="0 0 16 16" version="1.1" xmlns="http://www.w3.org/2000/svg" xmlns:xlink="http://www.w3.org/1999/xlink">
    <title>icon/提示/灰色-面</title>
    <g id="icon/提示/灰色-面" stroke="none" stroke-width="1" fill="none" fill-rule="evenodd">
        <path d="M8,1 C4.13400391,1 1,4.13400391 1,8 C1,11.8659961 4.13400391,15 8,15 C11.8659961,15 15,11.8659961 15,8 C15,4.13400391 11.8659961,1 8,1 Z M8.875,12.1015625 C8.875,12.2525547 8.75255469,12.375 8.6015625,12.375 L7.3984375,12.375 C7.24741797,12.375 7.125,12.2525547 7.125,12.1015625 L7.125,10.8984375 C7.125,10.7474453 7.24741797,10.625 7.3984375,10.625 L8.6015625,10.625 C8.75255469,10.625 8.875,10.7474453 8.875,10.8984375 L8.875,12.1015625 Z M8.875,8.6015625 C8.875,8.75258203 8.75258203,8.875 8.6015625,8.875 L7.3984375,8.875 C7.24741797,8.875 7.125,8.75258203 7.125,8.6015625 L7.125,3.8984375 C7.125,3.74744531 7.24744531,3.625 7.3984375,3.625 L8.6015625,3.625 C8.75258203,3.625 8.875,3.74744531 8.875,3.8984375 L8.875,8.6015625 Z" id="形状" fill="#B5B5B5" fill-rule="nonzero"></path>
    </g>
</svg>